<svg width="223" height="42" viewBox="0 0 223 42" fill="none" xmlns="http://www.w3.org/2000/svg">
<g clip-path="url(#clip0_1502_690)">
<path d="M9.05258 20.6804H5.45049C3.75619 20.6804 2.44792 20.2298 1.52691 19.3299C0.604667 18.4288 0.144165 17.1329 0.144165 15.4386V5.24302C0.144165 3.54872 0.604667 2.25162 1.52691 1.35047C2.44916 0.450572 3.75743 0 5.45049 0H9.05258C10.7456 0 12.0539 0.450572 12.9762 1.35047C13.8984 2.25162 14.3589 3.54872 14.3589 5.24178V15.4374C14.3589 17.1317 13.8972 18.4288 12.9762 19.3287C12.0539 20.2298 10.7456 20.6791 9.05258 20.6791V20.6804ZM6.09345 17.1428H8.37734C9.06375 17.1428 9.55156 16.9976 9.84077 16.7084C10.13 16.4192 10.2752 15.9314 10.2752 15.245V5.43541C10.2752 4.749 10.13 4.26119 9.84077 3.97198C9.55156 3.68277 9.06375 3.53755 8.37734 3.53755H6.09345C5.40704 3.53755 4.9242 3.68277 4.64616 3.97198C4.36688 4.26119 4.22786 4.749 4.22786 5.43541V15.245C4.22786 15.9314 4.36688 16.4192 4.64616 16.7084C4.9242 16.9976 5.40704 17.1428 6.09345 17.1428Z" fill="#00152D"/>
<path d="M21.6276 20.6804H18.8944C18.4438 20.6804 18.2191 20.4557 18.2191 20.0051V0.675237C18.2191 0.224665 18.4438 0 18.8944 0H26.7415C28.4135 0 29.7106 0.455537 30.6328 1.36661C31.5551 2.27768 32.0156 3.56982 32.0156 5.24178V8.32875C32.0156 10.0007 31.5538 11.2928 30.6328 12.2039C29.7106 13.115 28.4135 13.5705 26.7415 13.5705H22.6888C22.4319 13.5705 22.3028 13.6884 22.3028 13.9243V20.0027C22.3028 20.4532 22.0781 20.6779 21.6276 20.6779V20.6804ZM22.6566 10.0032H26.0663C26.7527 10.0032 27.2343 9.85797 27.5136 9.56876C27.7916 9.27955 27.9319 8.80291 27.9319 8.1376V5.43541C27.9319 4.749 27.7916 4.26119 27.5136 3.97198C27.2343 3.68277 26.7527 3.53755 26.0663 3.53755H22.6566C22.4207 3.53755 22.3028 3.65547 22.3028 3.8913V9.6482C22.3028 9.88403 22.4207 10.002 22.6566 10.002V10.0032Z" fill="#00152D"/>
<path d="M46.4574 20.6804H35.9404C35.4898 20.6804 35.2651 20.4557 35.2651 20.0051V0.675237C35.2651 0.224665 35.4898 0 35.9404 0H46.4574C46.8857 0 47.1004 0.224665 47.1004 0.675237V2.86231C47.1004 3.31288 46.8857 3.53755 46.4574 3.53755H39.7361C39.4792 3.53755 39.3501 3.65547 39.3501 3.8913V8.07182C39.3501 8.30765 39.4792 8.42557 39.7361 8.42557H45.2361C45.6866 8.42557 45.9113 8.65024 45.9113 9.10081V11.2879C45.9113 11.7385 45.6866 11.9631 45.2361 11.9631H39.7361C39.4792 11.9631 39.3501 12.081 39.3501 12.3169V16.7878C39.3501 17.0237 39.4792 17.1416 39.7361 17.1416H46.4574C46.8857 17.1416 47.1004 17.3663 47.1004 17.8168V20.0039C47.1004 20.4545 46.8857 20.6791 46.4574 20.6791V20.6804Z" fill="#00152D"/>
<path d="M54.0142 20.6804H51.3443C50.8937 20.6804 50.6691 20.4557 50.6691 20.0051V0.675237C50.6691 0.224665 50.8937 0 51.3443 0H53.756C54.2066 0 54.5058 0.150191 54.6572 0.450572L61.1539 12.6396H61.283V0.675237C61.283 0.224665 61.5076 0 61.9582 0H64.6281C65.0787 0 65.3033 0.224665 65.3033 0.675237V20.0051C65.3033 20.4557 65.0787 20.6804 64.6281 20.6804H62.2797C61.808 20.6804 61.4642 20.4669 61.2507 20.0374L54.8186 8.07306H54.6895V20.0051C54.6895 20.4557 54.4648 20.6804 54.0142 20.6804Z" fill="#00152D"/>
<path d="M75.885 20.6804H73.184C72.7124 20.6804 72.4765 20.4557 72.4765 20.0051V3.8913C72.4765 3.65547 72.3586 3.53755 72.1228 3.53755H68.4561C68.0055 3.53755 67.7809 3.31288 67.7809 2.86231V0.675237C67.7809 0.224665 68.0055 0 68.4561 0H80.6129C81.0634 0 81.2881 0.224665 81.2881 0.675237V2.86231C81.2881 3.31288 81.0634 3.53755 80.6129 3.53755H76.9462C76.6893 3.53755 76.5602 3.65547 76.5602 3.8913V20.0051C76.5602 20.4557 76.3355 20.6804 75.885 20.6804Z" fill="#00152D"/>
<path d="M94.9244 20.6804H84.4073C83.9567 20.6804 83.7321 20.4557 83.7321 20.0051V0.675237C83.7321 0.224665 83.9567 0 84.4073 0H94.9244C95.3526 0 95.5673 0.224665 95.5673 0.675237V2.86231C95.5673 3.31288 95.3526 3.53755 94.9244 3.53755H88.203C87.9461 3.53755 87.817 3.65547 87.817 3.8913V8.07182C87.817 8.30765 87.9461 8.42557 88.203 8.42557H93.703C94.1535 8.42557 94.3782 8.65024 94.3782 9.10081V11.2879C94.3782 11.7385 94.1535 11.9631 93.703 11.9631H88.203C87.9461 11.9631 87.817 12.081 87.817 12.3169V16.7878C87.817 17.0237 87.9461 17.1416 88.203 17.1416H94.9244C95.3526 17.1416 95.5673 17.3663 95.5673 17.8168V20.0039C95.5673 20.4545 95.3526 20.6791 94.9244 20.6791V20.6804Z" fill="#00152D"/>
<path d="M110.394 20.6804H99.8124C99.3619 20.6804 99.1372 20.4557 99.1372 20.0051V0.675237C99.1372 0.224665 99.3619 0 99.8124 0H102.546C102.996 0 103.221 0.224665 103.221 0.675237V16.7568C103.221 16.9926 103.35 17.1106 103.607 17.1106H110.393C110.821 17.1106 111.036 17.3464 111.036 17.8181V20.0051C111.036 20.4557 110.821 20.6804 110.393 20.6804H110.394Z" fill="#00152D"/>
<path d="M124.77 20.6804H114.253C113.802 20.6804 113.578 20.4557 113.578 20.0051V0.675237C113.578 0.224665 113.802 0 114.253 0H124.77C125.198 0 125.413 0.224665 125.413 0.675237V2.86231C125.413 3.31288 125.198 3.53755 124.77 3.53755H118.049C117.792 3.53755 117.663 3.65547 117.663 3.8913V8.07182C117.663 8.30765 117.792 8.42557 118.049 8.42557H123.549C123.999 8.42557 124.224 8.65024 124.224 9.10081V11.2879C124.224 11.7385 123.999 11.9631 123.549 11.9631H118.049C117.792 11.9631 117.663 12.081 117.663 12.3169V16.7878C117.663 17.0237 117.792 17.1416 118.049 17.1416H124.77C125.198 17.1416 125.413 17.3663 125.413 17.8168V20.0039C125.413 20.4545 125.198 20.6791 124.77 20.6791V20.6804Z" fill="#00152D"/>
<path d="M142.716 0H147.476C147.927 0 148.152 0.224665 148.152 0.675237V20.0051C148.152 20.4557 147.927 20.6804 147.476 20.6804H144.839C144.388 20.6804 144.163 20.4557 144.163 20.0051V4.76017H144.034L140.754 15.5342C140.625 15.9636 140.356 16.1771 139.949 16.1771H137.248C136.841 16.1771 136.573 15.9624 136.444 15.5342L133.099 4.7279H132.97V20.0051C132.97 20.2621 132.926 20.4396 132.841 20.5364C132.755 20.6332 132.573 20.6816 132.293 20.6816H129.656C129.205 20.6816 128.98 20.457 128.98 20.0064V0.675237C128.98 0.224665 129.205 0 129.656 0H134.448C134.749 0 134.952 0.150191 135.059 0.450572L138.469 11.8042H138.661L142.102 0.450572C142.166 0.150191 142.37 0 142.712 0L142.716 0Z" fill="#00152D"/>
<path d="M163.524 20.6804H153.007C152.557 20.6804 152.332 20.4557 152.332 20.0051V0.675237C152.332 0.224665 152.557 0 153.007 0H163.524C163.952 0 164.167 0.224665 164.167 0.675237V2.86231C164.167 3.31288 163.952 3.53755 163.524 3.53755H156.803C156.546 3.53755 156.417 3.65547 156.417 3.8913V8.07182C156.417 8.30765 156.546 8.42557 156.803 8.42557H162.303C162.753 8.42557 162.978 8.65024 162.978 9.10081V11.2879C162.978 11.7385 162.753 11.9631 162.303 11.9631H156.803C156.546 11.9631 156.417 12.081 156.417 12.3169V16.7878C156.417 17.0237 156.546 17.1416 156.803 17.1416H163.524C163.952 17.1416 164.167 17.3663 164.167 17.8168V20.0039C164.167 20.4545 163.952 20.6791 163.524 20.6791V20.6804Z" fill="#00152D"/>
<path d="M174.138 20.6804H171.436C170.964 20.6804 170.728 20.4557 170.728 20.0051V3.8913C170.728 3.65547 170.611 3.53755 170.375 3.53755H166.708C166.258 3.53755 166.033 3.31288 166.033 2.86231V0.675237C166.033 0.224665 166.258 0 166.708 0H178.865C179.315 0 179.54 0.224665 179.54 0.675237V2.86231C179.54 3.31288 179.315 3.53755 178.865 3.53755H175.198C174.941 3.53755 174.812 3.65547 174.812 3.8913V20.0051C174.812 20.4557 174.587 20.6804 174.137 20.6804H174.138Z" fill="#00152D"/>
<path d="M185.394 20.6804H182.661C182.21 20.6804 181.985 20.4557 181.985 20.0051V0.675237C181.985 0.224665 182.21 0 182.661 0H190.315C191.987 0 193.296 0.461743 194.239 1.38275C195.182 2.30499 195.654 3.60209 195.654 5.27405V7.78261C195.654 10.2055 194.699 11.8142 192.792 12.6073V12.7364L196.234 19.9083C196.426 20.4234 196.244 20.6804 195.686 20.6804H193.081C192.695 20.6804 192.416 20.6382 192.244 20.5513C192.072 20.4656 191.933 20.2832 191.826 20.0051L188.61 13.0579H186.455C186.198 13.0579 186.069 13.1758 186.069 13.4117V20.0051C186.069 20.4557 185.844 20.6804 185.394 20.6804ZM186.423 9.77729H189.574C190.261 9.77729 190.765 9.63206 191.086 9.34285C191.408 9.05364 191.569 8.58693 191.569 7.94397V5.43541C191.569 4.77135 191.408 4.2885 191.086 3.98812C190.765 3.68774 190.261 3.53755 189.574 3.53755H186.423C186.187 3.53755 186.069 3.65547 186.069 3.8913V9.42353C186.069 9.65937 186.187 9.77729 186.423 9.77729Z" fill="#00152D"/>
<path d="M207.168 20.6804H204.434C203.984 20.6804 203.759 20.4557 203.759 20.0051V13.1224L197.873 0.70751C197.788 0.515117 197.793 0.34879 197.889 0.208529C197.986 0.0695097 198.13 0 198.324 0H201.733C202.076 0 202.333 0.224665 202.506 0.675237L205.722 8.49012H205.946L209.098 0.675237C209.248 0.224665 209.505 0 209.87 0H213.28C213.493 0 213.649 0.0645447 213.746 0.192393C213.843 0.321482 213.837 0.492774 213.73 0.70751L207.844 13.1224V20.0051C207.844 20.4557 207.619 20.6804 207.169 20.6804H207.168Z" fill="#00152D"/>
<path d="M69.7793 20.9001C71.0515 20.905 71.7355 19.8338 71.738 19.0692C71.7417 18.2488 71.1782 17.7374 70.3006 17.7337C69.2542 17.7299 68.2885 18.574 68.2848 19.5074C68.2811 20.3837 68.929 20.8963 69.778 20.8988L69.7793 20.9001Z" fill="#366EDE"/>
<path d="M83.1152 30.9094C82.7763 30.9081 82.4362 31.0757 82.1222 31.5846C81.7237 32.2052 81.2124 32.6843 80.732 32.6819C80.3075 32.6806 80.027 32.312 80.0295 31.6889C80.0394 29.3975 82.651 27.0044 82.6596 24.6858C82.6659 23.2434 81.5947 22.2777 80.0394 22.2715C78.5685 22.2653 76.7253 23.6443 75.1911 25.3064L75.5908 24.3469C75.8191 23.9236 75.9606 23.6133 75.9619 23.3862C75.9644 22.8202 75.5411 22.3944 74.8348 22.3919C74.1559 22.3894 73.5886 22.7829 73.246 23.6021C72.5708 25.2009 71.7963 27.1161 71.0652 29.0711C69.8103 30.9702 68.3357 32.6608 67.185 32.6558C66.6476 32.6533 66.2256 32.2561 66.2293 31.2383C66.2355 29.8531 66.8636 28.1588 67.8342 26.1541C68.4015 25.2505 68.7726 24.6063 68.9973 24.1297C69.0084 24.1148 69.0159 24.0974 69.0208 24.0775C69.207 23.6741 69.2865 23.3973 69.2865 23.1901C69.289 22.624 68.8657 22.2268 68.2153 22.2244C67.9559 22.2244 67.7002 22.2951 67.4358 22.4652C67.4333 22.4664 67.4308 22.4676 67.4283 22.4689L67.4221 22.4739C67.3501 22.521 67.2769 22.5756 67.2037 22.6389L67.19 22.6489C67.19 22.6489 67.1801 22.6576 67.1764 22.6625C67.082 22.7444 66.9877 22.84 66.8896 22.9493C60.5916 29.2597 51.7179 32.9351 42.8082 32.6248C41.4764 32.5788 41.4776 34.648 42.8082 34.6939C50.0621 34.9471 58.0607 33.1262 64.0087 28.9134C63.7753 29.7215 63.6276 30.4985 63.6252 31.1713C63.6165 33.264 64.885 34.3153 66.8363 34.324C67.8218 34.3277 68.785 33.9467 69.6973 33.3161C69.7073 34.0323 70.236 34.3389 70.7673 34.3402C71.615 34.3439 71.9291 33.7791 72.1004 33.2429C72.7595 31.2097 74.0417 28.839 75.1787 27.5145C76.4571 25.9928 78.3029 24.1334 79.5193 24.1384C79.8582 24.1396 80.0555 24.2823 80.0555 24.5654C80.0481 26.4036 77.4626 29.1642 77.4539 31.484C77.4464 33.2938 78.602 34.3737 80.4403 34.3811C82.363 34.3886 83.8413 32.5565 83.845 31.6231C83.8463 31.1986 83.5087 30.9143 83.1127 30.9131L83.1152 30.9094Z" fill="#366EDE"/>
<path d="M159.257 21.2638C160.529 21.2688 161.213 20.1976 161.215 19.433C161.219 18.6125 160.656 18.1011 159.779 18.0974C158.733 18.0937 157.769 18.9377 157.764 19.8712C157.76 20.7475 158.408 21.2601 159.257 21.2626V21.2638Z" fill="#366EDE"/>
<path d="M220.718 16.4689C216.833 20.1243 212.565 23.3429 207.971 26.0575C205.703 27.3968 203.363 28.6145 200.964 29.7005C199.188 30.5049 196.482 32.0316 194.485 31.164C193.331 30.6637 193.072 29.3058 193.343 28.1875C193.7 26.7079 194.82 25.5523 195.823 24.4699C196.58 23.6532 195.557 22.1153 194.569 22.8451C190.732 25.6764 186.892 28.4568 182.689 30.7258C181.108 31.5798 178.981 33.032 177.004 32.9476C177.004 32.9476 176.669 32.9191 176.56 32.9017C175.641 32.7106 175.106 31.9162 175.111 30.6886C175.111 30.4627 175.114 30.2368 175.142 30.0382C179.812 29.3778 183.354 27.3 183.363 25.1228C183.369 23.5675 182.129 22.685 179.979 22.6763C177.394 22.6664 174.26 24.7058 173.082 27.8858C172.917 28.2235 172.778 28.571 172.672 28.9297C172.592 29.0402 172.511 29.1618 172.43 29.2922C170.951 31.5773 168.711 32.8409 166.053 32.8297C164.469 32.8235 163.453 32.1123 163.46 30.6414C163.473 27.3322 166.539 24.3756 168.463 24.383C168.746 24.383 169.001 24.4414 169.141 24.527C168.515 25.4865 168.23 26.1357 168.227 26.5316C168.225 27.2392 168.731 27.7493 169.608 27.753C170.57 27.7568 171.931 26.5465 171.939 24.9342C171.944 23.6619 170.675 22.6379 168.582 22.6292C165.509 22.6168 161.445 25.52 160.636 29.2872C159.361 31.2446 157.841 33.0209 156.663 33.0159C156.125 33.0134 155.703 32.6162 155.707 31.5984C155.713 30.2132 156.342 28.5189 157.312 26.5143C158.393 24.7939 158.764 24.0032 158.767 23.5502C158.769 22.9842 158.346 22.587 157.695 22.5845C156.961 22.582 156.251 23.1443 155.281 24.9788C154.603 26.2648 153.877 27.8834 153.458 29.3803C152.2 31.2881 150.718 32.9911 149.564 32.9874C148.942 32.9849 148.49 32.615 148.494 31.6816C148.501 29.9562 149.645 27.0765 150.985 24.2254L153.021 24.2341C153.614 24.2366 154.011 23.9548 154.014 23.3615C154.016 22.9097 153.65 22.5683 153.027 22.5659L151.811 22.5609L152.809 20.5848C153.52 19.4565 153.919 18.723 153.921 18.2985C153.923 17.7052 153.473 17.3067 152.765 17.3042C152.171 17.3017 151.377 17.8926 150.437 19.6986L148.954 22.5485L147.315 22.5423C146.693 22.5398 146.296 22.793 146.293 23.3578C146.291 23.9511 146.685 24.208 147.307 24.2105L148.184 24.2142C147.379 25.9855 146.658 27.7667 146.241 29.2661C144.762 31.4979 142.546 32.7317 139.919 32.7217C138.336 32.7155 137.32 32.0043 137.326 30.5334C137.34 27.2243 140.406 24.2676 142.33 24.2751C142.613 24.2751 142.867 24.3334 143.008 24.419C142.382 25.3785 142.097 26.0277 142.094 26.4237C142.092 27.1312 142.598 27.6413 143.474 27.645C144.436 27.6488 145.798 26.4385 145.805 24.8262C145.81 23.5539 144.542 22.5299 142.449 22.5212C139.357 22.5088 135.262 25.4468 134.487 29.2475C133.222 31.1776 131.751 32.9129 130.585 32.9092C130.132 32.9079 129.767 32.5095 129.77 31.6332C129.776 30.1908 130.632 28.1862 131.717 25.8154C132.543 24.4898 132.885 23.8406 132.887 23.4447C132.889 22.8787 132.494 22.4815 131.815 22.479C131.136 22.4765 130.371 23.0388 129.999 23.9139C129.466 22.9507 128.619 22.4653 127.431 22.4616C124.081 22.4479 120.47 25.5808 119.503 29.1345C118.232 31.082 116.773 32.6559 115.626 32.651C115.145 32.6485 114.864 32.2798 114.866 31.6294C114.876 29.3108 117.373 27.1994 117.381 25.3326C117.386 23.9747 115.749 23.431 114.535 22.7185C115.104 21.7305 115.39 20.9684 115.392 20.5439C115.395 19.8649 114.917 19.3548 114.068 19.351C113.106 19.3473 111.772 20.6432 111.764 22.6217V23.0177C110.663 25.3574 109.696 27.0679 108.557 28.8304C108.523 28.8813 108.489 28.9347 108.454 28.9893C108.445 29.003 108.437 29.0154 108.429 29.029C108.429 29.0303 108.428 29.0315 108.427 29.034C107.43 30.5831 105.731 31.6778 103.975 32.3481C105.82 30.6873 106.962 28.1751 106.971 25.9408C106.979 23.7066 105.628 22.3722 103.45 22.3635C101.924 22.3573 99.9948 23.7351 98.375 25.4257L98.8032 24.4377C99.0316 24.0144 99.1744 23.7041 99.1756 23.4769C99.1781 22.9109 98.7548 22.4852 98.0485 22.4827C97.3696 22.4802 96.8023 22.8737 96.4598 23.6929C94.8039 27.5606 91.8026 35.2688 90.0003 40.2673C89.8861 40.5776 89.8576 40.7476 89.8563 40.945C89.8538 41.5668 90.4174 41.9938 90.9548 41.9963C91.8311 42 92.1452 41.4924 92.4878 40.5602L95.0609 33.5856C95.7473 31.694 97.0866 29.1544 98.3936 27.6041C99.6721 26.0823 101.716 24.2242 102.904 24.2291C103.639 24.2316 104.09 24.856 104.086 25.8738C104.072 29.1544 101.626 32.7639 99.1657 32.754C98.6853 32.7515 98.2608 32.6088 97.8388 32.2401C97.3038 31.7573 97.1908 31.5872 96.7663 31.5848C96.2289 31.5823 95.7746 32.0328 95.7721 32.5988C95.7709 32.9948 96.0514 33.4206 96.6435 33.7904C97.4056 34.246 98.3663 34.4483 99.8359 34.4545C104.101 34.4719 107.925 32.8992 110.122 30.0816C110.265 29.9215 110.4 29.7241 110.539 29.5019C110.542 29.4982 110.544 29.4957 110.545 29.492C110.547 29.4895 110.548 29.487 110.549 29.4846C111.742 27.6264 112.709 25.9346 113.591 24.1882C114.185 24.5022 114.748 24.815 114.746 25.381C114.74 26.9077 112.297 29.3865 112.288 31.6207C112.281 33.4305 113.436 34.5104 115.275 34.5178C116.76 34.524 118.184 33.6328 119.466 32.3245C119.957 33.7669 121.242 34.5414 122.911 34.5488C124.437 34.555 125.912 33.5707 127.163 32.1334C127.383 33.7185 128.68 34.5712 130.237 34.5786C131.813 34.5848 133.322 33.6043 134.663 32.1905C135.324 33.7755 137.031 34.6059 139.598 34.6159C142.115 34.6258 144.246 33.8103 145.963 32.4201C146.302 33.8897 147.487 34.6481 149.213 34.6543C150.633 34.6606 152.007 33.8649 153.25 32.6758C153.638 34.0052 154.756 34.6767 156.311 34.6829C157.898 34.6891 159.428 33.6961 160.784 32.2687C161.436 33.8711 163.148 34.7102 165.729 34.7214C168.536 34.7325 170.865 33.7172 172.671 32.0241C173.342 34.0499 175.297 35.6449 177.465 35.4587C179.788 35.2588 181.818 34.0039 183.825 32.9154C185.493 32.0093 187.222 30.5359 188.805 29.487C189.651 28.926 190.487 28.3488 191.314 27.7617C191.085 28.6715 190.793 30.5309 191.143 31.5227C192.122 34.3043 195.108 34.7214 197.62 34.0151C202.575 32.6212 211.094 26.6607 213.651 24.8535C216.523 22.8228 219.615 20.3403 222.176 17.9298C223.147 17.015 221.682 15.5541 220.712 16.4664L220.718 16.4689ZM126.896 29.9848C125.815 31.5636 124.651 32.7478 123.52 32.7428C122.757 32.7404 122.193 32.1719 122.198 31.0411C122.212 27.8176 125.167 24.2378 127.373 24.2465C128.448 24.2515 129.067 24.7629 129.178 25.6119C128.521 27.2218 127.864 28.5201 126.898 29.986L126.896 29.9848ZM180.65 24.9714C180.645 26.3293 178.631 27.6215 175.603 28.2321C175.88 27.5408 176.252 26.9189 176.673 26.3852C176.809 26.2362 176.946 26.091 177.08 25.9458C177.129 25.8924 177.17 25.8378 177.205 25.7832C178.07 24.9131 179.05 24.4004 179.83 24.4029C180.311 24.4054 180.65 24.604 180.648 24.9714H180.65Z" fill="#366EDE"/>
</g>
<defs>
<clipPath id="clip0_1502_690">
<rect width="222.357" height="42" fill="white" transform="translate(0.144165)"/>
</clipPath>
</defs>
</svg>
