<svg width="40" height="40" viewBox="0 0 40 40" fill="none" xmlns="http://www.w3.org/2000/svg">
<circle cx="19.9569" cy="19.9569" r="18.9569" stroke="white" stroke-width="2"/>
<g clip-path="url(#clip0_1503_104)">
<path d="M28.983 25.8276C28.7565 24.463 26.0771 25.5156 25.9114 24.0198C25.6773 21.8977 29.0224 17.325 28.7588 15.5499C28.5219 13.9519 27.38 13.6169 26.3864 13.6005C25.4212 13.5841 25.1663 13.729 24.8402 13.9082C24.6519 14.011 24.3813 14.2148 24.0059 13.8781C23.7562 13.6541 23.5917 13.4972 23.3275 13.2988C23.1931 13.1972 22.9788 13.0699 22.6201 13.0201C22.261 12.9704 21.7963 13.0201 21.5009 13.1393C21.2048 13.259 20.9731 13.4683 20.7298 13.6672C20.487 13.8661 19.8712 14.517 19.2971 14.2766C19.048 14.1727 18.205 13.7754 17.5961 13.5273C16.4212 13.048 14.7267 13.8246 14.1166 14.8477C13.2094 16.3686 11.4169 22.3474 11.1452 23.1361C10.5363 24.9068 11.9169 26.3501 13.7777 26.2665C14.5645 26.2315 15.0882 25.9604 15.5853 25.1079C15.8726 24.6155 18.5712 17.9688 18.7716 17.6496C18.917 17.4185 19.4025 17.1135 19.8144 17.3124C20.2257 17.5114 20.308 17.9267 20.2472 18.318C20.1487 18.9509 18.2456 23.0054 18.1726 23.4645C18.0486 24.2444 18.4414 24.6783 19.3 24.7209C19.8886 24.7505 20.4749 24.551 20.9406 23.723C21.2014 23.2601 24.2023 17.5917 24.4677 17.213C24.7596 16.7976 24.9943 16.661 25.2915 16.6757C25.522 16.6867 25.8911 16.7424 25.799 17.3944C25.7086 18.0338 23.2951 22.1928 23.0425 23.2115C22.7036 24.5728 23.4961 25.9517 24.8014 26.5556C25.6339 26.9403 29.2767 27.5994 28.983 25.8282" fill="white"/>
</g>
<defs>
<clipPath id="clip0_1503_104">
<rect width="18" height="14" fill="white" transform="translate(11 13)"/>
</clipPath>
</defs>
</svg>
